# xmcd
#
# Track frame offsets: 
#        150
#        12954
#        33316
#        44216
#        61019
#        79385
#        92111
#        110562
#        132868
#        152590
#        169204
#        191731
#        207971
#
# Disc length: 3018 seconds
#
# Revision: 0
# Processed by: cddbd v1.5.2PL0 Copyright (c) Steve Scherf et al.
# Submitted via: ExactAudioCopy v1.0b4
#
DISCID=b10bc80d
DTITLE=Lucky 3 Blues Band - Howl!
DYEAR=2014
DGENRE=Blues-Rock
TTITLE0=Maxwell Street Blues
TTITLE1=Junkyard
TTITLE2=Boogaloo Test
TTITLE3=Too Much Funky Business
TTITLE4=So Alone
TTITLE5=Who's Hoodooin' Who?
TTITLE6=Old Dog
TTITLE7=Midnight On The Highway
TTITLE8=Wind Howlin Blues
TTITLE9=Shaking All Over
TTITLE10=Hoodoo Man Blues
TTITLE11=Too Much Alcohol
TTITLE12=I'm A Man
EXTD=
EXTT0=
EXTT1=
EXTT2=
EXTT3=
EXTT4=
EXTT5=
EXTT6=
EXTT7=
EXTT8=
EXTT9=
EXTT10=
EXTT11=
EXTT12=
PLAYORDER=
